<svg xmlns="http://www.w3.org/2000/svg" version="1.1" xmlns:xlink="http://www.w3.org/1999/xlink" width="512" height="512" x="0" y="0" viewBox="-4 0 72 80" xml:space="preserve" class=""><g><rect x="-4" y="0" width="72" height="72" fill="#fff" rx="16" /><path d="m36.812 32.625-5.562 5.688 3.094 3.053 5.361-5.718-2.893-3.023z" style="" fill="#e86702" data-original="#e86702"></path><path d="m34.251 35.244-1.4 1.432 3.225 2.843 1.369-1.46-3.194-2.815z" style="" fill="#000" data-original="#c9c9c8"></path><path d="M14 33a11 11 0 1 0 11 11 11 11 0 0 0-11-11Zm0 18a7 7 0 1 1 7-7 7 7 0 0 1-7 7ZM50 33a11 11 0 1 0 11 11 11 11 0 0 0-11-11Zm0 18a7 7 0 1 1 7-7 7 7 0 0 1-7 7Z" style="" fill="#000" data-original="#919191"></path><path d="M30 47a1.032 1.032 0 0 1-.124-.008l-16-2a1 1 0 0 1-.611-1.671l12-13a1.01 1.01 0 0 1 .518-.3l18-4 .434 1.954-17.695 3.933-10.468 11.341 13.565 1.7 14.652-15.633 1.458 1.368-15 16A1 1 0 0 1 30 47Z" style="" fill="#7ea633" data-original="#7ea633" class=""></path><path d="M26 23.598h2v22.804h-2z" style="" transform="rotate(-15.255 26.998 35.001)" fill="#7ea633" data-original="#7ea633" class=""></path><path d="M43 21a1 1 0 0 0-.965 1.263l3.016 11.053 4 12 1.9-.632-3.986-11.947L44.309 23H47v-2Z" style="" fill="#7ea633" data-original="#7ea633" class=""></path><path d="m49.63 26.562-1.873.468.486 1.94 1.873-.469a3.807 3.807 0 0 0-.924-7.5H47v2h2.192a1.808 1.808 0 0 1 .438 3.562Z" style="" fill="#7a4326" data-original="#7a4326"></path><path d="M16 46h-6a4 4 0 0 1-4-4V30h14v12a4 4 0 0 1-4 4Z" style="" fill="#e86702" data-original="#e86702"></path><path d="M10 35h6v2h-6zM3 31h3v2H3z" style="" fill="#d1d1cf" data-original="#d1d1cf"></path><path d="M30 50a4 4 0 1 1 4-4 4 4 0 0 1-4 4Zm0-6a2 2 0 1 0 2 2 2 2 0 0 0-2-2Z" style="" fill="#000" data-original="#c9c9c8"></path><path d="M37 53h-4a1 1 0 0 1-.9-.553l-3-6 1.79-.894L33.618 51H37Z" style="" fill="#000" data-original="#d1d1cf"></path><path d="m19.683 23.342 2.423 1.211a2 2 0 0 0 1.788 0l4.292-1.3a1.15 1.15 0 0 0 .814-1.1A1.148 1.148 0 0 0 27.851 21h-7.615A1.236 1.236 0 0 0 19 22.236a1.239 1.239 0 0 0 .683 1.106Z" style="" fill="#7a4326" data-original="#7a4326"></path></g></svg>