<svg xmlns="http://www.w3.org/2000/svg" class="ionicon" viewBox="-64 -62 636 636"><rect x="-64" y="-64" height="636" width="636" fill="#fff" rx="64" ry="64" /><path d="M388 288a76 76 0 1076 76 76.24 76.24 0 00-76-76zM124 288a76 76 0 1076 76 76.24 76.24 0 00-76-76z" fill="none" stroke="#000" stroke-miterlimit="10" stroke-width="32"/><path fill="none" stroke="#000" stroke-linecap="round" stroke-linejoin="round" stroke-width="32" d="M256 360v-86l-64-42 80-88 40 72h56"/><path d="M320 136a31.89 31.89 0 0032-32.1A31.55 31.55 0 00320.2 72a32 32 0 10-.2 64z"/></svg>